PathFileType	4	(X/Y/Z)	C:/Users/beibeiliu/ov580/test_trc/capture2\sequence.35_training_dense_left.trc
DataRate	CameraRate	NumFrames	NumMarkers	Units	OrigDataRate	OrigDataStartFrame	OrigNumFrames
120	120	14	19	mm	120	103	272
Frame#	Time	ThumbCMC			ThumbMCP			ThumbIP			ThumbTip			IndexMCP			IndexPIP			IndexTip			MiddleMCP			MiddlePIP			MiddleTip			RingMCP			RingPIP			RingTip			PinkyMCP			PinkyPIP			PinkyTip			BackHand1			BackHand2			BackHand3	
		X0	Y0	Z0	X1	Y1	Z1	X2	Y2	Z2	X3	Y3	Z3	X4	Y4	Z4	X5	Y5	Z5	X6	Y6	Z6	X7	Y7	Z7	X8	Y8	Z8	X9	Y9	Z9	X10	Y10	Z10	X11	Y11	Z11	X12	Y12	Z12	X13	Y13	Z13	X14	Y14	Z14	X15	Y15	Z15	X16	Y16	Z16	X17	Y17	Z17	X18	Y18	Z18	
102	0.85	-189.686	87.7176	16.6051	-163.906	102.211	5.74782	-145.049	105.301	-10.5311	-128.355	93.5807	-28.4853	-167.186	82.086	-56.1292	-138.569	83.196	-63.499	-117.997	79.5639	-38.6006	-155.117	60.1037	-57.124	-124.463	68.522	-51.0074	-120.479	66.809	-14.512	-150.71	40.931	-50.3322	-121.747	50.2117	-39.2243	-123.343	54.2042	-6.32302	-152.538	26.7247	-39.0138	-125.508	38.2963	-29.9541	-126.265	45.2289	1.90043	-197.988	31.6167	-20.1031	-211.297	32.2676	6.28697	-209.315	61.8543	-6.5895	
103	0.858333	-194.964	83.889	16.8086	-172.346	100.983	7.43582	-151.991	110.011	-10.2644	-134.765	97.6588	-29.8662	-174.419	79.388	-54.9401	-144.172	83.2412	-63.3501	-124.471	85.9593	-36.2611	-160.835	62.5237	-56.3374	-128.693	68.9468	-49.2888	-125.746	71.855	-16.7867	-154.792	46.3351	-50.3105	-126.949	54.2828	-39.8804	-130.611	59.5567	-5.17455	-153.442	29.2691	-39.955	-128.974	42.5918	-28.6691	-131.819	52.1832	3.01391	-199.889	31.6684	-19.2805	-214.082	29.9108	6.63906	-213.462	59.9617	-5.52018	
104	0.866667	-202.656	84.6286	18.9099	-178.543	102.583	5.93615	-158.838	113.415	-10.7627	-140.477	101.037	-31.6222	-181.392	81.8433	-55.2126	-150.221	85.9414	-62.6607	-132.106	88.7345	-34.0166	-166.015	62.9415	-56.1617	-135.752	73.1734	-51.5687	-135.411	77.0627	-13.1741	-155.863	47.8808	-51.7796	-131.926	58.1824	-41.4188	-136.68	65.7097	-6.56719	-158.867	30.8384	-37.6165	-133.009	45.8967	-29.7321	-134.493	54.4528	1.95264	-204.149	29.6826	-19.6747	-219.441	24.4534	10.5485	-219.005	61.8546	-2.0752	
105	0.875	-206.76	84.9742	15.9917	-184.475	104.781	8.11405	-166.014	111.784	-12.0869	-150.163	107.219	-26.6819	-188.709	85.1477	-54.3432	-160.828	87.6881	-64.5421	-140.757	95.9483	-34.6912	-174.326	69.6044	-56.5791	-143.724	77.8714	-53.9442	-140.75	82.4146	-16.1719	-165.992	49.5124	-49.4203	-136.868	64.9312	-40.0827	-143.435	69.4141	-5.41506	-158.892	32.0788	-38.9865	-135.487	48.1699	-30.3391	-141.619	60.8132	-2.68388	-208.142	34.0322	-16.8369	-221.426	27.5091	11.8111	-220.474	58.0761	-4.72474	
106	0.883333	-211.667	89.6867	19.0794	-189.105	109.367	10.311	-170.57	116.248	-12.4507	-152.554	106.572	-32.3908	-193.787	86.3784	-56.9856	-166.415	94.1548	-64.7963	-150.41	97.9262	-35.3941	-177.52	70.175	-59.5625	-150.143	80.7105	-54.2425	-147.145	81.6618	-15.8605	-170.689	52.4982	-50.8542	-142.245	63.7579	-42.5268	-146.458	69.0599	-9.69238	-162.413	39.2097	-41.7439	-138.61	50.517	-30.1318	-149.238	60.7546	2.26803	-208.454	32.0687	-17.6535	-221.993	26.5819	13.9116	-227.044	61.3781	-0.425217	
107	0.891667	-212.964	87.5495	20.8687	-190.719	108.837	5.27421	-175.448	116.946	-11.6801	-158.429	111.202	-33.5305	-202.513	89.2455	-53.7538	-173.352	96.7345	-64.7823	-158.298	98.6597	-33.9964	-183.175	72.7785	-59.7886	-155.132	85.3178	-53.9323	-152.173	84.2415	-20.6384	-173.059	54.936	-52.8056	-145.637	65.7126	-44.6505	-152.972	73.9797	-10.8298	-167.817	40.3707	-43.8448	-145.925	55.164	-33.9241	-154.681	63.7079	-3.64144	-211.972	31.9383	-17.2368	-222.833	27.4551	14.2046	-231.264	60.8259	-1.23835	
108	0.9	-214.899	88.9814	21.5208	-192.963	107.11	6.22139	-178.41	120.13	-12.724	-163.3	114.58	-31.88	-206.97	91.0865	-53.7545	-178.579	100.105	-64.6645	-164.84	105.763	-32.1163	-189.607	77.4023	-60.6002	-159.631	88.4	-53.9999	-159.729	89.0745	-19.1573	-175.16	58.6388	-55.6259	-150.332	69.8191	-46.3049	-157.517	74.9422	-11.9971	-170.522	42.436	-44.8286	-147.642	58.6744	-33.3997	-156.919	67.5019	-6.67812	-215.87	35.924	-16.5163	-224.77	29.3844	12.2098	-230.258	61.4309	-0.34771	
109	0.908333	-215.195	89.51	19.4501	-195.241	112.715	8.20038	-180.123	120.03	-12.0705	-165.403	114.713	-35.3328	-207.798	90.7888	-54.1759	-184.628	101.873	-64.5863	-167.779	106.896	-36.3001	-195.337	76.4263	-56.8561	-164.039	90.9355	-56.7308	-160.503	87.9173	-22.5031	-180.93	60.611	-55.3432	-154.386	74.9154	-45.338	-157.1	75.9526	-14.9066	-171.998	43.8592	-46.874	-152.963	63.7417	-36.4585	-159.379	67.2567	-5.19831	-216.177	34.9248	-12.7576	-226.096	29.1652	15.2858	-234.302	61.6457	3.78306	
110	0.916667	-216.915	91.1944	25.507	-195.009	113.907	7.18058	-181.339	121.039	-13.3048	-168.99	112.909	-33.8081	-212.013	93.0999	-51.5222	-184.489	103.374	-61.3101	-169.438	108.164	-35.1897	-196.782	79.9762	-58.2036	-166.66	91.2735	-56.6087	-165.515	91.5855	-17.922	-185.239	63.165	-54.7012	-158.061	76.5372	-48.9585	-158.919	78.0069	-14.7226	-176.516	47.0207	-45.3145	-155.088	64.0363	-38.13	-162.198	69.4671	-9.45239	-216.449	35.2934	-11.9798	-224.392	28.3778	16.8002	-235.821	62.9843	5.42161	
111	0.925	-216.99	90.6743	25.547	-196.465	110.528	13.7608	-183.847	122.111	-8.74166	-170.305	119.542	-31.3875	-214.75	95.5606	-49.4209	-189.156	106.097	-61.434	-173.078	108.46	-30.1707	-200.824	82.6388	-57.5742	-171.239	92.442	-57.5289	-166.599	91.5234	-19.0603	-185.824	63.0955	-53.9381	-159.227	77.3874	-49.1414	-160.873	80.0131	-15.5358	-178.527	44.2666	-44.234	-154.427	63.7967	-40.1448	-162.742	70.5333	-4.62991	-217.351	39.9641	-15.0378	-224.621	31.1526	17.3836	-234.078	60.186	7.81864	
112	0.933333	-217.84	92.5955	29.6578	-196.237	112.754	12.6308	-184.495	122.868	-8.13073	-170.617	121.215	-31.9048	-217.696	97.8807	-46.6602	-191.341	112.988	-58.0081	-175.621	111.605	-26.4762	-201.934	79.1253	-54.1626	-175.657	97.9646	-57.3965	-166.966	96.5199	-21.5417	-187.364	66.6517	-54.0751	-162.223	80.7639	-48.5188	-164.08	83.4362	-15.2216	-178.294	50.6031	-45.7361	-159.083	67.2283	-40.6843	-165.536	72.8497	-7.45245	-217.517	37.9129	-10.2177	-223.694	32.1852	16.4352	-235.934	61.9891	7.16794	
113	0.941667	-216.698	94.5228	28.1081	-197.139	112.261	15.7694	-184.601	125.922	-6.84103	-172.322	123.187	-32.3461	-218.8	98.567	-44.1489	-191.838	112.943	-56.6625	-176.438	113.508	-26.4746	-200.519	82.9998	-56.5185	-176.869	99.9543	-55.9973	-169.72	94.7487	-15.9422	-188.958	69.8083	-53.8012	-165.329	83.8219	-46.9691	-166.547	82.5952	-10.4637	-180.704	49.8828	-43.8059	-156.964	69.322	-37.1335	-165.43	72.5828	-4.50631	-220.184	43.0346	-11.5699	-222.715	29.1412	18.1255	-235.692	63.4025	11.9352	
114	0.95	-215.325	90.4122	32.4778	-195.398	112.793	12.3923	-184.877	125.355	-9.0969	-173.801	121.929	-29.1364	-221.048	100.441	-43.3215	-194.827	114.729	-55.5449	-175.734	111.969	-30.4023	-205.786	87.0437	-51.5514	-174.53	99.6783	-51.371	-168.448	99.8457	-19.7287	-188.58	69.4725	-53.9552	-166.054	83.7498	-46.8455	-165.978	84.8329	-12.5774	-184.467	51.623	-41.7598	-161.375	71.0838	-39.738	-163.536	73.0015	-6.56322	-218.479	40.6122	-6.63491	-220.977	30.653	16.634	-235.225	61.2323	12.9719	
115	0.958333	-213.745	91.1999	30.6633	-195.235	110.91	17.4333	-184.418	127.707	-7.50999	-175.352	123.29	-29.9174	-222.636	101.769	-40.4662	-195.918	116.855	-54.436	-177.827	117.062	-29.7725	-205.11	85.2106	-52.1069	-174.768	98.7457	-50.8767	-169.887	99.4644	-19.1015	-194.02	71.1253	-48.8441	-165.109	87.4778	-42.2812	-168.437	85.6899	-11.177	-182.914	53.7872	-44.9152	-159.521	69.5275	-38.0174	-167.473	76.1656	-6.07614	-218.658	41.893	-8.24947	-222.773	33.2219	19.8813	-235.341	67.3835	14.7077	
